<svg width="30" height="30" viewBox="0 0 30 30" fill="none" xmlns="http://www.w3.org/2000/svg">
<path fill-rule="evenodd" clip-rule="evenodd" d="M14.6464 29.1719C14.6263 29.172 14.6061 29.172 14.586 29.172C14.5656 29.172 14.5451 29.172 14.5247 29.1719L14.6464 29.1719ZM16.3755 29.0633L16.3932 18.7475H19.9936C20.3174 18.7475 20.5901 18.5052 20.6282 18.1837L21.0265 14.8234C21.0716 14.4434 20.7746 14.1092 20.3919 14.1092H16.3753V11.2983C16.3753 10.0235 16.7292 9.15492 18.5572 9.15492L20.2498 9.15413C20.6026 9.15392 20.8885 8.8679 20.8885 8.51509V5.68172C20.8885 5.32876 20.6024 5.04267 20.2495 5.04267H17.4913C14.13 5.04267 11.8288 7.09434 11.8288 10.8623V14.1091H9.12546C8.77157 14.1091 8.48505 14.3967 8.4864 14.7506L8.49939 18.1108C8.50075 18.4628 8.78641 18.7473 9.13837 18.7473H11.8467L11.8292 28.9118C5.09169 27.6231 0 21.6991 0 14.586C0 6.53038 6.53038 0 14.586 0C22.6416 0 29.172 6.53038 29.172 14.586C29.172 22.0358 23.5869 28.1812 16.3755 29.0633Z" fill="white"/>
</svg>
