<svg width="112" height="29" viewBox="0 0 112 29" fill="none" xmlns="http://www.w3.org/2000/svg">
<g clip-path="url(#clip0)">
<path fill-rule="evenodd" clip-rule="evenodd" d="M28.5225 28.499C28.5326 28.3027 28.552 28.1064 28.552 27.9101C28.5536 19.3121 28.5541 10.7139 28.5536 2.11538V1.54972H32.5063V3.26412C32.6361 3.20755 32.7214 3.18634 32.7895 3.1386C35.0687 1.54418 37.6144 0.821724 40.3093 0.581207C40.4523 0.561303 40.5943 0.533776 40.7346 0.498734H42.9038C43.3249 0.556317 43.7465 0.615203 44.1676 0.671203C46.7428 1.0132 49.1577 1.81553 51.2706 3.4565C54.5158 5.97689 55.8402 10.0003 54.6976 13.9224C53.9397 16.5256 52.2908 18.3708 50.0846 19.6944C47.43 21.2873 44.5329 21.8626 41.514 21.8111C38.3659 21.7579 35.3873 21.0299 32.7273 19.1582C32.679 19.1242 32.6141 19.1169 32.5154 19.0835V19.5818C32.5154 22.0617 32.5158 24.5415 32.5165 27.0214C32.517 27.5141 32.5315 28.0062 32.5395 28.4989H28.5225V28.499ZM42.0456 3.95648C40.0389 3.94885 37.9915 4.2655 36.0851 5.29658C33.3195 6.79252 31.9817 9.69433 32.6881 12.7166C33.1972 14.8955 34.5516 16.3538 36.444 17.2181C39.8571 18.7776 43.3362 18.7782 46.8045 17.4042C48.2265 16.8408 49.4077 15.9018 50.23 14.5261C52.0505 11.4801 51.0769 7.51277 48.0297 5.5798C46.2241 4.43486 44.2261 4.04269 42.0456 3.95648ZM71.3458 0.498961C72.152 0.616222 72.962 0.707631 73.7634 0.855777C75.8446 1.24042 77.7848 2.00689 79.5334 3.28114C84.9408 7.22185 84.9247 15.1513 79.5152 19.0735C77.4248 20.5895 75.0872 21.3741 72.5908 21.6739C69.4094 22.0563 66.3069 21.7253 63.3465 20.3751C62.5655 20.0188 61.8301 19.5521 61.0035 19.0979V19.5775C61.0035 22.3826 61.0032 25.1879 61.0025 27.9934C61.0025 28.162 60.9885 28.3305 60.9815 28.4991H57.0444V1.54871H61.0046V3.28442C61.0859 3.24922 61.1653 3.20909 61.2422 3.16422C63.0177 1.91078 64.982 1.17475 67.0793 0.812562C67.8018 0.687778 68.5308 0.602306 69.2566 0.498847H71.3458V0.498961ZM70.4372 3.95614C67.8346 4.02804 65.9824 4.48752 64.4483 5.36836C62.9474 6.23031 61.8135 7.44432 61.291 9.19378C60.3609 12.31 61.6338 15.4121 64.481 16.9942C66.4265 18.0746 68.5281 18.4281 70.6979 18.3687C72.7716 18.3122 74.768 17.8913 76.5655 16.7289C80.6706 14.0731 80.6545 8.22561 76.5317 5.59264C74.531 4.31466 72.3124 3.96078 70.4372 3.95603V3.95614ZM112 12.0881C111.932 12.4168 111.864 12.746 111.797 13.0746C111.171 16.1388 109.396 18.2787 106.859 19.7624C103.887 21.5007 100.658 21.9979 97.3091 21.7614C94.6674 21.5748 92.1592 20.879 89.9095 19.3546C87.6121 17.7979 86.019 15.6801 85.584 12.7862C85.009 8.95468 86.2894 5.86116 89.1913 3.51889C91.3111 1.80812 93.7769 1.01303 96.394 0.666849C96.8022 0.612773 97.2104 0.555017 97.6181 0.498847H99.7878C99.9563 0.528658 100.124 0.570631 100.294 0.586413C102.585 0.798874 104.784 1.35474 106.807 2.54449C109.59 4.18207 111.438 6.54459 111.915 9.95143C111.936 10.0457 111.964 10.1379 112 10.227V12.088V12.0881ZM98.4935 3.95841C96.5206 4.02431 94.6824 4.35369 92.989 5.29387C90.801 6.50822 89.4713 8.35407 89.4165 11.0281C89.364 13.6233 90.5301 15.5239 92.6119 16.8283C94.0784 17.7475 95.6983 18.1667 97.3831 18.3115C99.8533 18.5242 102.251 18.234 104.487 17.0201C107.117 15.5924 108.407 12.94 107.909 9.98797C107.532 7.75526 106.228 6.25842 104.369 5.25755C102.503 4.25255 100.488 3.94624 98.4935 3.95841ZM14.3816 0.498961C15.1742 0.614695 15.9712 0.70503 16.7588 0.851026C19.0877 1.28262 21.25 2.14813 23.1086 3.72377C27.8772 7.76567 27.7688 14.9081 22.8844 18.8026C20.7431 20.5098 18.28 21.3458 15.6451 21.6699C12.4927 22.0568 9.41465 21.7378 6.47127 20.4289C4.06971 19.3603 2.12167 17.7329 0.934834 15.222C0.457869 14.2129 0.205335 13.1375 0.09312 12.0209C0.0703578 11.8724 0.0392624 11.7255 0 11.5809V10.8195C0.0382646 10.672 0.068176 10.5222 0.0895776 10.3709C0.301831 7.94781 1.26998 5.91546 2.95963 4.26776C4.91797 2.35811 7.28708 1.34971 9.87601 0.856398C10.6758 0.704067 11.4868 0.616392 12.2926 0.498961H14.3816ZM13.5295 3.95688C11.5086 3.95297 9.4662 4.25967 7.58553 5.30716C5.35278 6.55075 4.03415 8.45538 4.0357 11.1838C4.0371 13.8769 5.34451 15.7599 7.53575 17.0078C9.1825 17.9456 10.9788 18.3076 12.8315 18.3653C15.0712 18.4349 17.243 18.0972 19.2352 16.9433C21.369 15.7068 22.6097 13.8293 22.6307 11.2211C22.651 8.68775 21.501 6.81056 19.4573 5.53189C17.6582 4.40623 15.6689 4.03251 13.5295 3.95677V3.95688Z" fill="#046A38"/>
</g>
<defs>
<clipPath id="clip0">
<rect width="112" height="28" fill="white" transform="translate(0 0.5)"/>
</clipPath>
</defs>
</svg>
