<svg width="133" height="15" viewBox="0 0 133 15" fill="none" xmlns="http://www.w3.org/2000/svg">
<path d="M14.2711 2.8724C14.5715 1.23037 14.0908 0.135676 12.1681 0.135676H6.21987L5.67912 2.93322H10.7261C11.0265 2.93322 11.1467 3.11566 11.0866 3.48056L10.4257 6.88626H7.30137L7.78204 4.51443L0.511932 8.04177H5.91945L5.43878 10.4136L10.1854 8.10258L9.58455 11.4475C9.52446 11.8124 9.34421 11.934 8.98371 11.934H3.93669L3.39594 14.7924H9.34421C11.2669 14.7924 12.1681 13.6368 12.4686 12.0556L14.2711 2.8724ZM24.0647 14.7924L26.8886 0.0748596H20.2794C18.3567 0.0748596 17.3954 1.23037 17.095 2.81158L13.7303 14.7924H16.9748L20.0391 3.48056C20.0992 3.11566 20.2794 2.93322 20.5798 2.93322H23.2235L20.9403 14.7924H24.0647ZM34.5793 7.98095L33.9184 11.5691C33.8583 11.934 33.618 12.1164 33.3175 12.1164H30.6739L31.5751 7.43361H34.2188C34.5793 7.49442 34.6995 7.61605 34.5793 7.98095ZM37.7637 7.61605C38.0641 5.97402 37.5835 4.81851 35.6608 4.81851H32.1159L33.0171 0.135676H29.8928L27.0688 14.8532H33.7381C35.7209 14.8532 36.562 13.6977 36.9225 12.1164L37.7637 7.61605ZM48.038 2.93322L46.2956 11.934H42.991L45.2742 3.48056C45.3342 3.11566 45.5145 2.93322 45.8149 2.93322H48.038ZM49.4199 11.934L51.7031 0.0748596H45.4544C43.5317 0.0748596 42.5704 1.23037 42.27 2.81158L39.7465 11.8732H38.4246L37.8238 14.7315H38.9654H48.8792H49.7804L50.3212 11.8732H49.4199V11.934ZM60.235 3.48056L58.7329 11.4475C58.6127 11.8124 58.4324 11.934 58.132 11.934H55.9089C55.6085 11.934 55.4884 11.8124 55.5484 11.4475L57.1106 3.48056C57.1707 3.11566 57.2909 2.93322 57.6514 2.93322H59.8745C60.1749 2.93322 60.295 3.11566 60.235 3.48056ZM63.4194 2.8724C63.7198 1.23037 63.2391 0.135676 61.3165 0.135676H57.3509C55.4283 0.135676 54.4669 1.29118 54.1064 2.8724L52.364 12.0556C52.0636 13.6977 52.5443 14.7924 54.4669 14.7924H58.4925C60.4753 14.7924 61.3765 13.6368 61.677 12.0556L63.4194 2.8724ZM72.2517 3.48056L71.5307 7.12952C71.4706 7.55524 71.2903 7.67687 70.9298 7.67687H68.2861L69.2475 2.93322H71.8912C72.1916 2.93322 72.3117 3.11566 72.2517 3.48056ZM75.4361 2.8724C75.7966 1.23037 75.2558 0.135676 73.3332 0.135676H66.724L63.9 14.8532H66.9042L67.7454 10.596H71.3504C73.2731 10.596 74.0542 9.44054 74.4147 7.7985L75.4361 2.8724ZM81.8049 3.96709L81.3243 9.6838H79.1613L81.6247 3.96709H81.8049ZM84.3885 14.7924L84.749 0.0748596H80.5432L73.5735 14.7924H76.9382L78.0798 12.0556H81.0839L80.8436 14.7924H84.3885ZM95.8645 2.93322L94.1221 11.934H90.8175L93.1006 3.48056C93.1607 3.11566 93.341 2.93322 93.6414 2.93322H95.8645ZM97.2464 11.934L99.5296 0.0748596H93.2809C91.3582 0.0748596 90.3969 1.23037 90.0965 2.81158L87.573 11.8732H86.2511L85.6503 14.7315H86.7318H96.6456H97.6069L98.1477 11.8732H97.2464V11.934ZM108.422 3.48056L106.86 11.4475C106.8 11.8124 106.619 11.934 106.319 11.934H104.096C103.796 11.934 103.675 11.8124 103.735 11.4475L105.238 3.48056C105.358 3.11566 105.538 2.93322 105.778 2.93322H108.001C108.302 2.93322 108.482 3.11566 108.422 3.48056ZM109.443 0.135676H105.418C103.495 0.135676 102.594 1.29118 102.293 2.8724L100.551 12.0556C100.251 13.6977 100.731 14.7924 102.654 14.7924H106.68C108.602 14.7924 109.503 13.6368 109.804 12.0556L111.606 2.8724C111.847 1.23037 111.366 0.135676 109.443 0.135676ZM114.611 11.4475L113.95 14.8532H110.885L111.546 11.4475H114.611ZM131.134 12.7246C130.893 13.9409 130.232 14.7924 128.79 14.7924H126.207C124.765 14.7924 124.404 13.9409 124.645 12.7246L126.207 4.51443H128.43L126.928 12.3597C126.868 12.5422 126.928 12.6638 127.048 12.6638H128.67C128.85 12.6638 128.91 12.603 128.971 12.3597L130.473 4.51443H132.696L131.134 12.7246ZM121.64 6.88626L121.1 9.44054C121.039 9.74462 120.919 9.80543 120.679 9.80543H118.876L119.537 6.52136H121.4C121.58 6.52136 121.7 6.643 121.64 6.88626ZM122.361 4.51443H117.735L115.752 14.7924H117.855L118.456 11.8124H119.477L119.958 14.7924H122.301L121.7 11.7515C122.542 11.5083 122.962 10.7785 123.142 9.86625L123.803 6.46055C124.104 5.30504 123.743 4.51443 122.361 4.51443Z" fill="#CE1037"/>
</svg>
