<svg width="85" height="21" viewBox="0 0 85 21" fill="none" xmlns="http://www.w3.org/2000/svg">
<g clip-path="url(#clip0)">
<path d="M7.55161 0C5.97465 0 4.10896 1.5 2.55422 4.03676C0.955056 6.66177 0 9.90441 0 12.7279C0 16.8529 2.33211 21.0221 7.55161 21.0221C12.7711 21.0221 15.1032 16.8529 15.1032 12.7279C15.1032 9.90441 14.1482 6.66177 12.549 4.03676C10.9943 1.5 9.12856 0 7.55161 0Z" fill="#E30611"/>
<path d="M48.3525 6.19853H53.6386V19.875H59.3023V6.19853H64.5885V1.125H48.3525V6.19853Z" fill="#E30611"/>
<path d="M76.6932 6.19853H85V1.125H76.6932C69.0528 1.125 64.9883 4.89706 64.9883 10.5C64.9883 16.1029 69.075 19.875 76.6932 19.875H85V14.8015H76.6932C73.1617 14.8015 70.8296 13.5441 70.8296 10.4779C70.8296 7.45588 73.1395 6.19853 76.6932 6.19853Z" fill="#E30611"/>
<path d="M36.8252 1.125L33.8046 12.3309L30.7839 1.125H20.7669V19.875H26.4528V4.63235L30.5618 19.875H37.0473L41.1785 4.61029V19.875H46.8422V1.125H36.8252Z" fill="#E30611"/>
</g>
<defs>
<clipPath id="clip0">
<rect width="85" height="21" fill="white"/>
</clipPath>
</defs>
</svg>
