<svg width="55" height="55" viewBox="0 0 55 55" fill="none" xmlns="http://www.w3.org/2000/svg">
<path fill-rule="evenodd" clip-rule="evenodd" d="M27.5 0C12.3122 0 0 12.3122 0 27.5C0 42.6878 12.3122 55 27.5 55C42.6878 55 55 42.6878 55 27.5C55 12.3122 42.6878 0 27.5 0ZM46.2629 34.6337C46.0749 34.4569 45.9005 34.293 45.7517 34.1439C45.42 33.8116 45.0047 33.4608 44.5723 33.0955C43.3845 32.0919 42.0677 30.9793 41.9989 29.8441C41.9092 28.3475 43.6275 26.4527 44.8406 25.1151C45.2129 24.7046 45.5376 24.3466 45.7478 24.0687C47.2841 22.0475 48.75 17.4902 48.75 17.4902L39.3759 17.4326C39.3759 17.4326 36.0375 25.8631 32.1284 27.8767C30.6455 26.9062 30.9292 24.6792 31.2105 22.4707C31.4572 20.5341 31.7021 18.6116 30.7524 17.5632C29.3529 16.0185 20.6942 16.4335 20.3737 18.4239C21.3236 18.6968 22.2422 18.9773 22.6253 19.7804C23.587 21.7631 23.3055 27.6807 21.7536 27.8767C20.927 27.9799 20.162 26.897 19.6139 26.1211C19.5296 26.0017 19.4504 25.8896 19.3768 25.7901C19.2426 25.6063 19.1092 25.4267 18.9769 25.2486C18.4621 24.5556 17.9647 23.8859 17.5044 23.085C16.8242 21.9015 14.2559 17.3096 14.2559 17.3096L6.25 17.3365C6.25 17.3365 9.05675 24.2762 10.9996 27.5078C15.0103 34.1785 19.5567 41.0528 30.8775 39.3006C31.1149 38.6763 31.2057 37.9563 31.2926 37.2672C31.4705 35.8569 31.632 34.576 33.0001 34.5089C33.9326 34.4678 34.6615 35.3368 35.2585 36.0485C35.3872 36.202 35.5099 36.3482 35.6271 36.4763C35.8776 36.7517 36.0947 37.017 36.3026 37.2712C36.6983 37.7548 37.0611 38.1981 37.5582 38.5936C39.1687 39.8655 40.7558 39.8078 43.4336 39.6964C43.999 39.6742 44.5685 39.691 45.1124 39.7071C46.8248 39.7578 48.2835 39.8009 48.5624 38.5936C48.9025 37.1153 47.3539 35.6594 46.2629 34.6337Z" fill="#00985F"/>
</svg>
