<svg width="30" height="31" viewBox="0 0 30 31" fill="none" xmlns="http://www.w3.org/2000/svg">
<path fill-rule="evenodd" clip-rule="evenodd" d="M15 0.48407C6.71573 0.48407 0 7.1998 0 15.4841C0 23.7683 6.71573 30.4841 15 30.4841C23.2843 30.4841 30 23.7683 30 15.4841C30 7.1998 23.2843 0.48407 15 0.48407ZM25.2344 19.3752C25.1319 19.2788 25.0367 19.1894 24.9556 19.1081C24.7746 18.9268 24.5481 18.7354 24.3123 18.5362C23.6644 17.9888 22.9461 17.3819 22.9086 16.7627C22.8597 15.9464 23.7969 14.9129 24.4586 14.1833C24.6617 13.9594 24.8388 13.7641 24.9534 13.6125C25.7914 12.51 26.591 10.0242 26.591 10.0242L21.4779 9.99279C21.4779 9.99279 19.6569 14.5913 17.5247 15.6896C16.7158 15.1602 16.8705 13.9455 17.024 12.7409C17.1586 11.6845 17.2921 10.6359 16.7741 10.064C16.0108 9.22148 11.2878 9.44784 11.113 10.5335C11.6311 10.6824 12.1322 10.8354 12.3412 11.2734C12.8657 12.3549 12.7122 15.5827 11.8657 15.6896C11.4148 15.7459 10.9976 15.1552 10.6986 14.732C10.6526 14.6669 10.6094 14.6057 10.5693 14.5515C10.496 14.4512 10.4233 14.3532 10.3511 14.2561C10.0703 13.8781 9.79899 13.5128 9.54793 13.0759C9.17691 12.4304 7.77603 9.92572 7.77603 9.92572L3.40918 9.94039C3.40918 9.94039 4.94014 13.7257 5.99986 15.4884C8.18755 19.1269 10.6674 22.8766 16.8424 21.9208C16.9718 21.5803 17.0214 21.1875 17.0688 20.8117C17.1658 20.0424 17.2539 19.3438 18.0002 19.3072C18.5088 19.2848 18.9064 19.7587 19.232 20.1469C19.3022 20.2306 19.3691 20.3104 19.433 20.3803C19.5697 20.5305 19.6881 20.6752 19.8015 20.8139C20.0174 21.0777 20.2152 21.3195 20.4864 21.5352C21.3649 22.2289 22.2305 22.1975 23.6911 22.1367C23.9995 22.1246 24.3102 22.1338 24.6069 22.1425C25.5409 22.1702 26.3365 22.1937 26.4886 21.5352C26.6742 20.7288 25.8295 19.9347 25.2344 19.3752Z" fill="#046A38"/>
</svg>
