<svg width="55" height="55" viewBox="0 0 55 55" fill="none" xmlns="http://www.w3.org/2000/svg">
<path fill-rule="evenodd" clip-rule="evenodd" d="M27.6063 54.9998C27.5709 54.9999 27.5354 55 27.5 55C27.464 55 27.428 54.9999 27.392 54.9998L27.6063 54.9998ZM30.8738 54.7951L30.9072 35.346H37.6954C38.3059 35.346 38.82 34.8892 38.8918 34.2829L39.6427 27.9477C39.7277 27.2311 39.1679 26.601 38.4463 26.601H30.8735V21.3015C30.8735 18.8981 31.5408 17.2604 34.9872 17.2604L38.1785 17.2589C38.8435 17.2585 39.3826 16.7193 39.3826 16.0541V10.7122C39.3826 10.0467 38.8431 9.50732 38.1778 9.50732H32.9776C26.6404 9.50732 22.3017 13.3755 22.3017 20.4794V26.6009H17.2049C16.5377 26.6009 15.9975 27.1431 16 27.8103L16.0245 34.1456C16.0271 34.8091 16.5657 35.3457 17.2292 35.3457H22.3354L22.3024 54.5095C9.59974 52.0797 0 40.9109 0 27.5C0 12.3122 12.3122 0 27.5 0C42.6878 0 55 12.3122 55 27.5C55 41.5456 44.4701 53.1319 30.8738 54.7951Z" fill="#00985F"/>
</svg>
