<svg width="55" height="55" viewBox="0 0 55 55" fill="none" xmlns="http://www.w3.org/2000/svg">
<path fill-rule="evenodd" clip-rule="evenodd" d="M27.4993 0C12.312 0 0 12.3129 0 27.4995C0 42.6861 12.312 55 27.4993 55C42.6865 55 55 42.6868 55 27.4995C55 12.3121 42.6865 0 27.4993 0Z" fill="#00985F"/>
<path fill-rule="evenodd" clip-rule="evenodd" d="M23.8748 27.499C23.8748 28.0772 23.7679 28.6268 23.581 29.1418L31.423 32.8592C32.3256 31.8856 33.6202 31.2729 35.0634 31.2729C37.7893 31.2729 39.9994 33.45 39.9994 36.1357C39.9994 38.822 37.7887 41 35.0623 41C32.3365 41 30.1252 38.822 30.1252 36.1357C30.1252 35.8782 30.1523 35.6269 30.1913 35.3809L21.8435 31.4246C21.0274 32.013 20.0248 32.3638 18.9366 32.3638C16.2104 32.3638 14 30.1867 14 27.4986C14 24.8133 16.2104 22.6358 18.9366 22.6358C20.0248 22.6358 21.0278 22.9867 21.8441 23.5745L30.1924 19.6191C30.1531 19.3726 30.1263 19.1223 30.1263 18.8643C30.1263 16.1775 32.337 14 35.0634 14C37.7893 14 40 16.1775 40 18.8643C40 21.5506 37.7893 23.7286 35.0634 23.7286C33.6212 23.7286 32.3256 23.1144 31.423 22.1417L23.581 25.8577C23.7681 26.3719 23.8748 26.9228 23.8748 27.499Z" fill="white"/>
</svg>
