<svg width="31" height="18" viewBox="0 0 31 18" fill="none" xmlns="http://www.w3.org/2000/svg">
<path d="M30.8356 16.256C30.7981 16.1736 30.7631 16.1054 30.7306 16.0506C30.1927 15.0648 29.1649 13.8548 27.6477 12.4202L27.6157 12.3873L27.5996 12.3712L27.5834 12.3547H27.5671C26.8786 11.6867 26.4425 11.2375 26.2599 11.0076C25.9258 10.5695 25.851 10.1261 26.0336 9.67683C26.1626 9.33738 26.6472 8.62052 27.4862 7.52526C27.9276 6.94481 28.2771 6.47959 28.5352 6.1291C30.3969 3.6103 31.204 2.00075 30.9564 1.29983L30.8602 1.13603C30.7956 1.03742 30.6289 0.947204 30.3602 0.864932C30.0908 0.782832 29.7466 0.769254 29.3269 0.823968L24.6785 0.856647C24.6032 0.829492 24.4957 0.832023 24.3556 0.864932C24.2157 0.897841 24.1457 0.914353 24.1457 0.914353L24.0648 0.955489L24.0006 1.00491C23.9468 1.03759 23.8876 1.09506 23.823 1.17722C23.7587 1.25909 23.7049 1.35517 23.662 1.46466C23.1559 2.7897 22.5805 4.02166 21.9348 5.16047C21.5366 5.83954 21.1709 6.42804 20.837 6.92634C20.5035 7.42446 20.2237 7.79147 19.998 8.02672C19.7718 8.2622 19.5677 8.45085 19.3845 8.59336C19.2015 8.73593 19.0618 8.79617 18.9651 8.77413C18.8681 8.7521 18.7768 8.73024 18.6904 8.70837C18.5398 8.60976 18.4187 8.47565 18.3274 8.30593C18.2357 8.1362 18.174 7.92258 18.1417 7.66524C18.1096 7.40772 18.0906 7.18622 18.0852 6.99998C18.0802 6.81398 18.0825 6.55088 18.0934 6.21143C18.1046 5.87181 18.1096 5.64203 18.1096 5.52155C18.1096 5.10536 18.1176 4.65366 18.1336 4.16636C18.1499 3.67905 18.163 3.29295 18.1741 3.0085C18.185 2.72377 18.1901 2.42253 18.1901 2.10494C18.1901 1.78736 18.1711 1.5383 18.1336 1.35753C18.0965 1.17699 18.0396 1.00175 17.9645 0.83185C17.8891 0.662128 17.7786 0.530837 17.6337 0.437633C17.4884 0.344545 17.3079 0.270672 17.093 0.215785C16.5226 0.0844371 15.7964 0.0133836 14.9138 0.00233721C12.9125 -0.0195254 11.6266 0.111995 11.0563 0.396727C10.8303 0.517029 10.6259 0.681401 10.443 0.889326C10.2493 1.13033 10.2223 1.26185 10.3621 1.28349C11.0079 1.38193 11.465 1.61741 11.734 1.98971L11.831 2.18699C11.9064 2.32932 11.9817 2.58132 12.057 2.94263C12.1323 3.30394 12.1808 3.70362 12.2022 4.14145C12.2559 4.94098 12.2559 5.6254 12.2022 6.19475C12.1483 6.76433 12.0975 7.20773 12.0489 7.52532C12.0003 7.8429 11.9277 8.10025 11.831 8.2973C11.734 8.49441 11.6695 8.61488 11.6372 8.65861C11.6049 8.70233 11.578 8.72989 11.5566 8.74071C11.4168 8.79525 11.2713 8.82304 11.1207 8.82304C10.97 8.82304 10.7872 8.74629 10.572 8.5929C10.3569 8.43952 10.1336 8.22883 9.90225 7.9605C9.67087 7.69211 9.40991 7.31705 9.11928 6.83526C8.82887 6.35348 8.52756 5.78408 8.2155 5.12705L7.95731 4.65056C7.79592 4.34402 7.57544 3.89768 7.29566 3.31193C7.01571 2.72596 6.76827 2.15914 6.55317 1.6116C6.46718 1.38164 6.338 1.20656 6.16586 1.08609L6.08508 1.03667C6.03137 0.992943 5.94516 0.946514 5.8269 0.897036C5.70846 0.847615 5.58488 0.812174 5.45565 0.790369L1.03318 0.823048C0.581265 0.823048 0.274634 0.92724 0.113178 1.13534L0.0485612 1.23378C0.0162813 1.28861 0 1.37617 0 1.4967C0 1.61718 0.0322799 1.76504 0.0968963 1.94011C0.742495 3.4843 1.44457 4.97355 2.20312 6.40808C2.96167 7.84261 3.62084 8.99817 4.18022 9.87371C4.73972 10.7499 5.31002 11.5768 5.89112 12.3541C6.47221 13.1316 6.85686 13.6299 7.04505 13.8488C7.23348 14.0682 7.38148 14.2321 7.48906 14.3416L7.89264 14.7358C8.15088 14.9986 8.5301 15.3135 9.03047 15.6802C9.53095 16.0472 10.085 16.4086 10.693 16.7647C11.301 17.1204 12.0084 17.4106 12.8155 17.635C13.6225 17.8597 14.408 17.9498 15.172 17.9063H17.0282C17.4047 17.8732 17.6899 17.7528 17.8837 17.5448L17.9479 17.4625C17.9911 17.3971 18.0315 17.2956 18.0688 17.159C18.1066 17.0221 18.1254 16.8713 18.1254 16.7073C18.1144 16.2365 18.1496 15.8122 18.2301 15.4344C18.3105 15.0568 18.4022 14.772 18.5048 14.5803C18.6073 14.3887 18.7229 14.227 18.8517 14.096C18.9807 13.9646 19.0726 13.885 19.1265 13.8576C19.1801 13.8301 19.2229 13.8114 19.2552 13.8002C19.5134 13.7126 19.8173 13.7974 20.1674 14.055C20.5172 14.3123 20.8452 14.6301 21.1521 15.0077C21.4588 15.3857 21.8272 15.8098 22.2576 16.2806C22.6882 16.7516 23.0647 17.1017 23.3874 17.332L23.71 17.5291C23.9255 17.6606 24.2053 17.7811 24.5497 17.8906C24.8935 18 25.1947 18.0274 25.4533 17.9727L29.5851 17.9071C29.9938 17.9071 30.3118 17.8382 30.5373 17.7016C30.7633 17.5647 30.8976 17.4139 30.9409 17.2499C30.9841 17.0857 30.9864 16.8994 30.9491 16.6911C30.9108 16.4833 30.8731 16.3381 30.8356 16.256Z" fill="white"/>
</svg>
