<svg width="43" height="43" viewBox="0 0 43 43" fill="none" xmlns="http://www.w3.org/2000/svg">
<g clip-path="url(#clip0)">
<path d="M34.2 41.2H8C4.2 41.2 1 38 1 34.2V8C1 4.2 4.2 1 8 1H34.2C38 1 41.2 4.2 41.2 8V34.2C41.2 38.1 38.1 41.2 34.2 41.2Z" fill="white" stroke="#7E8399" stroke-width="2" stroke-miterlimit="10"/>
<path d="M14.1 18.7C14.1 20.5 13.5 22 12.2 23.9L9.99998 27.2H7.49998L10.2 23.5C10.6 23 10.9 22.5 11.1 22C10.6 22.3 9.99998 22.5 9.39998 22.5C7.19998 22.5 5.59998 20.8 5.59998 18.5C5.59998 16.2 7.39998 14.5 9.89998 14.5C12.3 14.4 14.1 16.1 14.1 18.7ZM9.79998 20.6C11 20.6 11.8 19.9 11.9 18.6V18.4C11.9 17.1 11 16.2 9.79998 16.2C8.59998 16.2 7.69998 17.1 7.69998 18.4C7.69998 19.8 8.49998 20.6 9.79998 20.6Z" fill="#7E8399"/>
<path d="M20.1 14.4C23.1 14.4 24.6 16.7 24.6 20.9C24.6 25.1 23.1 27.4 20.1 27.4C17.1 27.4 15.6 25.1 15.6 20.9C15.6 16.7 17.1 14.4 20.1 14.4ZM20.1 25.5C21.7 25.5 22.4 24 22.4 20.9C22.4 17.7 21.7 16.3 20.1 16.3C18.5 16.3 17.8 17.8 17.8 20.9C17.8 24.1 18.5 25.5 20.1 25.5Z" fill="#7E8399"/>
<path d="M31.4 20.4H28.3V26.7H27.1V19.4H31.4V20.4Z" fill="#7E8399"/>
<path d="M37 27.8H36.1V26.6H31.6V21.2H32.7V25.7H35.1V21.2H36.2V25.7H37V27.8Z" fill="#7E8399"/>
</g>
<defs>
<clipPath id="clip0">
<rect width="42.2" height="42.2" fill="white"/>
</clipPath>
</defs>
</svg>
