<svg width="43" height="43" viewBox="0 0 43 43" fill="none" xmlns="http://www.w3.org/2000/svg">
<g clip-path="url(#clip0)">
<path d="M34.2 41.2H8C4.2 41.2 1 38 1 34.2V8C1 4.2 4.2 1 8 1H34.2C38 1 41.2 4.2 41.2 8V34.2C41.2 38.1 38.1 41.2 34.2 41.2Z" fill="white" stroke="#7E8399" stroke-width="2" stroke-miterlimit="10"/>
<path d="M17.3 22.8C14.7 20.2 14.7 16.1 17.3 13.5L22 8.89999L31.3 18.2L26.7 22.8C24 25.4 19.9 25.4 17.3 22.8Z" fill="white" stroke="#7E8399" stroke-width="2" stroke-miterlimit="10"/>
<path d="M24.4 11.3L27.8 7.89999" stroke="#7E8399" stroke-width="2" stroke-miterlimit="10" stroke-linecap="round"/>
<path d="M28.8 15.7L32.3 12.3" stroke="#7E8399" stroke-width="2" stroke-miterlimit="10" stroke-linecap="round"/>
<path d="M17.3 22.8C16.2 23.9 13.2 26.9 13.2 26.9L15.3 29L10 34.4" stroke="#7E8399" stroke-width="2" stroke-miterlimit="10" stroke-linecap="round" stroke-linejoin="round"/>
</g>
<defs>
<clipPath id="clip0">
<rect width="42.2" height="42.2" fill="white"/>
</clipPath>
</defs>
</svg>
