<svg width="30" height="30" viewBox="0 0 30 30" fill="none" xmlns="http://www.w3.org/2000/svg">
<path fill-rule="evenodd" clip-rule="evenodd" d="M14.586 0C6.53038 0 0 6.53038 0 14.586C0 22.6416 6.53038 29.172 14.586 29.172C22.6416 29.172 29.172 22.6416 29.172 14.586C29.172 6.53038 22.6416 0 14.586 0ZM24.5378 18.3697C24.4381 18.276 24.3456 18.189 24.2667 18.11C24.0907 17.9337 23.8705 17.7476 23.6411 17.5539C23.0112 17.0216 22.3127 16.4315 22.2762 15.8293C22.2286 15.0356 23.14 14.0306 23.7834 13.3211C23.9809 13.1034 24.1531 12.9135 24.2646 12.7661C25.0795 11.694 25.857 9.27684 25.857 9.27684L20.885 9.24627C20.885 9.24627 19.1143 13.7179 17.0409 14.7858C16.2544 14.2711 16.4048 13.0899 16.5541 11.9185C16.6849 10.8913 16.8148 9.87165 16.3111 9.31556C15.5688 8.49625 10.9762 8.71636 10.8062 9.7721C11.31 9.9168 11.7973 10.0656 12.0005 10.4915C12.5105 11.5432 12.3612 14.6819 11.5381 14.7858C11.0997 14.8406 10.6939 14.2662 10.4032 13.8547C10.3585 13.7913 10.3165 13.7319 10.2775 13.6791C10.2063 13.5816 10.1355 13.4864 10.0653 13.3919C9.79228 13.0243 9.52845 12.6691 9.28432 12.2443C8.92354 11.6166 7.56132 9.18105 7.56132 9.18105L3.315 9.19532C3.315 9.19532 4.8037 12.8761 5.83418 14.5902C7.96149 18.1283 10.3729 21.7745 16.3774 20.8451C16.5033 20.5139 16.5515 20.132 16.5976 19.7665C16.6919 19.0186 16.7776 18.3392 17.5033 18.3036C17.9979 18.2818 18.3845 18.7427 18.7011 19.1201C18.7694 19.2016 18.8344 19.2791 18.8966 19.3471C19.0295 19.4931 19.1446 19.6339 19.2549 19.7687C19.4648 20.0252 19.6572 20.2603 19.9209 20.4701C20.7751 21.1447 21.6169 21.1141 23.0372 21.055C23.3371 21.0432 23.6391 21.0522 23.9276 21.0607C24.8359 21.0876 25.6096 21.1104 25.7575 20.4701C25.9379 19.686 25.1165 18.9138 24.5378 18.3697Z" fill="white"/>
</svg>
