<svg width="43" height="43" viewBox="0 0 43 43" fill="none" xmlns="http://www.w3.org/2000/svg">
<g clip-path="url(#clip0)">
<path d="M34.2 41.2H8C4.2 41.2 1 38 1 34.2V8C1 4.2 4.2 1 8 1H34.2C38 1 41.2 4.2 41.2 8V34.2C41.2 38.1 38.1 41.2 34.2 41.2Z" fill="white" stroke="#7E8399" stroke-width="2" stroke-miterlimit="10"/>
<path d="M21.1 25C23.2539 25 25 23.2539 25 21.1C25 18.9461 23.2539 17.2 21.1 17.2C18.9461 17.2 17.2 18.9461 17.2 21.1C17.2 23.2539 18.9461 25 21.1 25Z" fill="white" stroke="#7E8399" stroke-width="2" stroke-miterlimit="10" stroke-linecap="round"/>
<path d="M31.6 12C33.7 14.4 35 17.6 35 21.1C35 24.6 33.7 27.8 31.6 30.2" stroke="#7E8399" stroke-width="2" stroke-miterlimit="10" stroke-linecap="round"/>
<path d="M10.6 30.2C8.50001 27.8 7.20001 24.6 7.20001 21.1C7.20001 17.6 8.50001 14.4 10.6 12" stroke="#7E8399" stroke-width="2" stroke-miterlimit="10" stroke-linecap="round"/>
<path d="M13.6 27.3C12.2 25.6 11.4 23.5 11.4 21.1C11.4 18.8 12.2 16.6 13.6 14.9" stroke="#7E8399" stroke-width="2" stroke-miterlimit="10" stroke-linecap="round"/>
<path d="M28.7 14.9C30.1 16.6 30.9 18.7 30.9 21.1C30.9 23.4 30.1 25.6 28.7 27.3" stroke="#7E8399" stroke-width="2" stroke-miterlimit="10" stroke-linecap="round"/>
</g>
<defs>
<clipPath id="clip0">
<rect width="42.2" height="42.2" fill="white"/>
</clipPath>
</defs>
</svg>
