<svg width="30" height="31" viewBox="0 0 30 31" fill="none" xmlns="http://www.w3.org/2000/svg">
<path fill-rule="evenodd" clip-rule="evenodd" d="M15.0613 30.4839C15.0409 30.484 15.0204 30.4841 15 30.4841C14.9792 30.4841 14.9585 30.484 14.9377 30.4839L15.0613 30.4839ZM16.84 30.3723L16.8583 19.7637H20.5609C20.8939 19.7637 21.1743 19.5145 21.2135 19.1838L21.6231 15.7282C21.6695 15.3374 21.3641 14.9937 20.9705 14.9937H16.8398V12.103C16.8398 10.7921 17.2039 9.89884 19.0837 9.89884L20.8244 9.89803C21.1871 9.89781 21.4812 9.60367 21.4812 9.24084V6.32706C21.4812 5.96408 21.1869 5.66987 20.824 5.66987H17.9876C14.5309 5.66987 12.1644 7.77977 12.1644 11.6546V14.9936H9.38427C9.02033 14.9936 8.72568 15.2894 8.72707 15.6533L8.74043 19.1089C8.74183 19.4709 9.0356 19.7635 9.39755 19.7635H12.1827L12.1647 30.2165C5.23611 28.891 0 22.799 0 15.4841C0 7.1998 6.71573 0.48407 15 0.48407C23.2843 0.48407 30 7.1998 30 15.4841C30 23.1454 24.2563 29.4652 16.84 30.3723Z" fill="#046A38"/>
</svg>
