<svg width="55" height="55" viewBox="0 0 55 55" fill="none" xmlns="http://www.w3.org/2000/svg">
<path fill-rule="evenodd" clip-rule="evenodd" d="M27.5 0C42.6878 0 55 12.3122 55 27.5C55 42.6878 42.6878 55 27.5 55C12.3122 55 0 42.6878 0 27.5C0 12.3122 12.3122 0 27.5 0ZM34.9824 8H19.4489C13.1359 8 8 13.1359 8 19.4489V34.9824C8 41.2953 13.1359 46.4313 19.4489 46.4313H34.9824C41.2953 46.4313 46.4313 41.2953 46.4313 34.9824V19.4489C46.4313 13.1359 41.2952 8 34.9824 8ZM42.5651 34.9824C42.5651 39.1701 39.1701 42.5651 34.9824 42.5651H19.4489C15.2611 42.5651 11.8662 39.1701 11.8662 34.9824V19.4489C11.8662 15.261 15.2611 11.8662 19.4489 11.8662H34.9824C39.1701 11.8662 42.5651 15.261 42.5651 19.4489V34.9824ZM27.2156 17.1503C21.6656 17.1503 17.1503 21.6656 17.1503 27.2156C17.1503 32.7656 21.6656 37.281 27.2156 37.281C32.7657 37.281 37.281 32.7656 37.281 27.2156C37.281 21.6655 32.7657 17.1503 27.2156 17.1503ZM27.2156 33.366C23.8189 33.366 21.0653 30.6124 21.0653 27.2157C21.0653 23.8189 23.819 21.0654 27.2156 21.0654C30.6124 21.0654 33.3659 23.8189 33.3659 27.2157C33.3659 30.6123 30.6123 33.366 27.2156 33.366ZM36.6709 20.2004C38.0186 20.2004 39.111 19.1079 39.111 17.7603C39.111 16.4127 38.0186 15.3202 36.6709 15.3202C35.3233 15.3202 34.2309 16.4127 34.2309 17.7603C34.2309 19.1079 35.3233 20.2004 36.6709 20.2004Z" fill="#00985F"/>
</svg>
