<svg width="43" height="43" viewBox="0 0 43 43" fill="none" xmlns="http://www.w3.org/2000/svg">
<path d="M34.2 41.2H8C4.2 41.2 1 38 1 34.2V8C1 4.2 4.2 1 8 1H34.2C38 1 41.2 4.2 41.2 8V34.2C41.2 38.1 38.1 41.2 34.2 41.2Z" fill="white" stroke="#7E8399" stroke-width="2" stroke-miterlimit="10"/>
<path d="M21.1 33.6C27.617 33.6 32.9001 28.317 32.9001 21.8C32.9001 15.283 27.617 10 21.1 10C14.5831 10 9.30005 15.283 9.30005 21.8C9.30005 28.317 14.5831 33.6 21.1 33.6Z" stroke="#7E8399" stroke-width="2" stroke-miterlimit="10" stroke-linecap="round" stroke-linejoin="round"/>
<path d="M17.5 15.5L27.3 21.1L17.5 26.8V15.5Z" stroke="#7E8399" stroke-width="2" stroke-miterlimit="10" stroke-linecap="round" stroke-linejoin="round"/>
</svg>
