<svg width="55" height="55" viewBox="0 0 55 55" fill="none" xmlns="http://www.w3.org/2000/svg">
<path fill-rule="evenodd" clip-rule="evenodd" d="M27.5 0C42.6878 0 55 12.3122 55 27.5C55 42.6878 42.6878 55 27.5 55C12.3122 55 0 42.6878 0 27.5C0 12.3122 12.3122 0 27.5 0ZM39.8259 12.8333H15.1741C10.3375 12.8333 6.41667 16.8083 6.41667 21.7117V34.205C6.41667 39.1084 10.3375 43.0833 15.1741 43.0833H39.8259C44.6625 43.0833 48.5833 39.1084 48.5833 34.205V21.7117C48.5833 16.8083 44.6625 12.8333 39.8259 12.8333ZM33.9032 28.5662L22.3728 34.1414C22.0656 34.2899 21.7107 34.0628 21.7107 33.7178V22.2189C21.7107 21.8689 22.0749 21.6421 22.3828 21.8003L33.9132 27.724C34.256 27.9001 34.2501 28.3985 33.9032 28.5662Z" fill="#00985F"/>
</svg>
