<svg width="43" height="43" viewBox="0 0 43 43" fill="none" xmlns="http://www.w3.org/2000/svg">
<g clip-path="url(#clip0)">
<path d="M34.2 41.2H8C4.2 41.2 1 38 1 34.2V8C1 4.2 4.2 1 8 1H34.2C38 1 41.2 4.2 41.2 8V34.2C41.2 38.1 38.1 41.2 34.2 41.2Z" fill="white" stroke="#7E8399" stroke-width="2" stroke-miterlimit="10"/>
<path d="M28 37.7H14.3C12.7 37.7 11.3 36.4 11.3 34.7V7.5C11.3 5.8 12.7 4.5 14.3 4.5H28C29.6 4.5 31 5.8 31 7.5V34.7C31 36.4 29.6 37.7 28 37.7Z" fill="white" stroke="#7E8399" stroke-width="2" stroke-miterlimit="10"/>
<path d="M20.5837 17.2907V25H19.3139V21.5535H15.7767V25H14.507V17.2907H15.7767V20.3744H19.3139V17.2907H20.5837Z" fill="#7E8399"/>
<path d="M28.293 21.1C28.293 23.4581 27.0233 24.9093 24.9372 24.9093H22.1256V17.2H24.9372C27.0233 17.2907 28.293 18.8325 28.293 21.1ZM27.0233 21.1C27.0233 19.4674 26.207 18.3791 24.6651 18.3791H23.3954V23.9116H24.6651C26.1163 23.9116 27.0233 22.8233 27.0233 21.1Z" fill="#7E8399"/>
</g>
<defs>
<clipPath id="clip0">
<rect width="42.2" height="42.2" fill="white"/>
</clipPath>
</defs>
</svg>
