<svg width="15" height="29" viewBox="0 0 15 29" fill="none" xmlns="http://www.w3.org/2000/svg">
<path d="M14.4351 0.00603394L10.8373 0C6.7953 0 4.18317 2.80125 4.18317 7.13694V10.4275H0.565722C0.253132 10.4275 0 10.6924 0 11.0192V15.7869C0 16.1136 0.25342 16.3782 0.565722 16.3782H4.18317V28.4087C4.18317 28.7354 4.4363 29 4.74889 29H9.46863C9.78122 29 10.0343 28.7351 10.0343 28.4087V16.3782H14.264C14.5766 16.3782 14.8297 16.1136 14.8297 15.7869L14.8314 11.0192C14.8314 10.8623 14.7717 10.712 14.6658 10.601C14.5598 10.49 14.4155 10.4275 14.2654 10.4275H10.0343V7.63806C10.0343 6.29732 10.34 5.61669 12.0109 5.61669L14.4346 5.61578C14.7469 5.61578 15 5.35089 15 5.02446V0.59736C15 0.271225 14.7472 0.00663733 14.4351 0.00603394Z" fill="white"/>
</svg>
