<svg width="43" height="43" viewBox="0 0 43 43" fill="none" xmlns="http://www.w3.org/2000/svg">
<g clip-path="url(#clip0)">
<path d="M34.2 41.2H8C4.2 41.2 1 38 1 34.2V8C1 4.2 4.2 1 8 1H34.2C38 1 41.2 4.2 41.2 8V34.2C41.2 38.1 38.1 41.2 34.2 41.2Z" fill="white" stroke="#7E8399" stroke-width="2" stroke-miterlimit="10"/>
<path d="M24.8 27.3H8.7C7.3 27.3 6.2 26.2 6.2 24.8V8.60001C6.2 7.20001 7.3 6.10001 8.7 6.10001H24.8C26.2 6.10001 27.3 7.20001 27.3 8.60001V24.7C27.4 26.1 26.2 27.3 24.8 27.3Z" fill="white" stroke="#7E8399" stroke-width="2" stroke-miterlimit="10"/>
<path d="M12.4 15.4C14.1121 15.4 15.5 14.0121 15.5 12.3C15.5 10.5879 14.1121 9.20001 12.4 9.20001C10.6879 9.20001 9.3 10.5879 9.3 12.3C9.3 14.0121 10.6879 15.4 12.4 15.4Z" fill="white" stroke="#7E8399" stroke-width="2" stroke-miterlimit="10"/>
<path d="M21.1 15.4C22.8121 15.4 24.2 14.0121 24.2 12.3C24.2 10.5879 22.8121 9.20001 21.1 9.20001C19.3879 9.20001 18 10.5879 18 12.3C18 14.0121 19.3879 15.4 21.1 15.4Z" fill="white" stroke="#7E8399" stroke-width="2" stroke-miterlimit="10"/>
<path d="M21.1 24.1C22.8121 24.1 24.2 22.7121 24.2 21C24.2 19.2879 22.8121 17.9 21.1 17.9C19.3879 17.9 18 19.2879 18 21C18 22.7121 19.3879 24.1 21.1 24.1Z" fill="white" stroke="#7E8399" stroke-width="2" stroke-miterlimit="10"/>
<path d="M12.4 24.1C14.1121 24.1 15.5 22.7121 15.5 21C15.5 19.2879 14.1121 17.9 12.4 17.9C10.6879 17.9 9.3 19.2879 9.3 21C9.3 22.7121 10.6879 24.1 12.4 24.1Z" fill="white" stroke="#7E8399" stroke-width="2" stroke-miterlimit="10"/>
<path d="M34.6 37.4H24.4C22.9 37.4 21.6 36.1 21.6 34.6C21.6 33.1 22.9 31.8 24.4 31.8H34.6C36.1 31.8 37.4 33.1 37.4 34.6C37.4 36.2 36.2 37.4 34.6 37.4Z" fill="white" stroke="#7E8399" stroke-width="2" stroke-miterlimit="10"/>
<path d="M25.5 34.6C25.5 35.2 25.1 35.6 24.5 35.6C24 35.6 23.5 35.1 23.5 34.6C23.5 34.1 24 33.6 24.5 33.6C25 33.6 25.5 34.1 25.5 34.6Z" fill="#7E8399"/>
<path d="M35.1 34.6C35.1 35.2 34.7 35.6 34.1 35.6C33.6 35.6 33.1 35.1 33.1 34.6C33.1 34.1 33.6 33.6 34.1 33.6C34.7 33.6 35.1 34.1 35.1 34.6Z" fill="#7E8399"/>
</g>
<defs>
<clipPath id="clip0">
<rect width="42.2" height="42.2" fill="white"/>
</clipPath>
</defs>
</svg>
