<svg width="87" height="20" viewBox="0 0 87 20" fill="none" xmlns="http://www.w3.org/2000/svg">
<g clip-path="url(#clip0)">
<path fill-rule="evenodd" clip-rule="evenodd" d="M21.4361 0.475723C19.9051 0.306919 18.3618 0.638596 17.0182 1.42516C15.6746 2.21173 14.5968 3.41458 13.9328 4.86837C13.2688 6.32216 13.0513 7.95553 13.3102 9.54397C13.569 11.1324 14.2915 12.5979 15.3784 13.7391C16.4653 14.8803 17.8631 15.6411 19.3798 15.917C20.8965 16.1928 22.4576 15.9702 23.8485 15.2797C25.2395 14.5892 26.3919 13.4647 27.1475 12.0608C27.9031 10.6568 28.2248 9.04241 28.0682 7.43938C27.896 5.65751 27.1424 3.99219 25.9344 2.72383C24.7265 1.45546 23.1378 0.661534 21.4361 0.475723ZM21.1946 12.36C20.3712 12.4757 19.5339 12.3183 18.8003 11.9101C18.0668 11.5019 17.4739 10.8633 17.1049 10.0842C16.736 9.30505 16.6096 8.42448 16.7435 7.56625C16.8773 6.70801 17.2647 5.91525 17.8513 5.29939C18.4378 4.68353 19.1939 4.27552 20.0134 4.13272C20.8329 3.98991 21.6746 4.11949 22.4201 4.50323C23.1656 4.88697 23.7775 5.50559 24.1697 6.27215C24.562 7.0387 24.715 7.91465 24.6071 8.77689C24.4939 9.68381 24.0982 10.5264 23.4813 11.1741C22.8644 11.8219 22.0607 12.2387 21.1946 12.36ZM32.0537 0.784286C31.7953 0.784933 31.5402 0.845882 31.3071 0.962696C31.074 1.07951 30.8687 1.24925 30.7062 1.45957C30.5436 1.66989 30.4279 1.91549 30.3675 2.1785C30.307 2.44152 30.3034 2.71533 30.3567 2.98002C30.5202 3.83752 31.2854 4.42342 32.119 4.42342H36.9563L29.4283 14.8512C29.3727 14.9282 29.3386 15.0199 29.3299 15.116C29.3212 15.2122 29.3383 15.3089 29.3792 15.3955C29.4201 15.482 29.4832 15.5549 29.5615 15.606C29.6398 15.6571 29.7301 15.6844 29.8223 15.6847H41.6306C42.4636 15.6847 43.2294 15.099 43.3929 14.2413C43.4463 13.9767 43.4426 13.7029 43.3822 13.4399C43.3218 13.1769 43.2062 12.9313 43.0437 12.721C42.8813 12.5107 42.6761 12.3409 42.443 12.224C42.21 12.1071 41.955 12.0461 41.6966 12.0453H35.8027L43.3249 1.62558C43.3811 1.54785 43.4156 1.45526 43.4243 1.3582C43.4331 1.26113 43.4158 1.16344 43.3745 1.07607C43.3331 0.988706 43.2693 0.915125 43.1903 0.863585C43.1112 0.812045 43.02 0.784585 42.9269 0.784286H32.0537ZM79.239 0.826262C78.848 0.923568 78.5005 1.15761 78.2539 1.4897C78.0073 1.82179 77.8763 2.23203 77.8827 2.6526V8.71164L68.5031 0.898727C68.4296 0.837611 68.341 0.799471 68.2477 0.788695C68.1543 0.777919 68.06 0.794945 67.9755 0.837813C67.891 0.880682 67.8197 0.947652 67.77 1.03102C67.7202 1.11439 67.6939 1.21076 67.6942 1.30906V13.8196C67.6878 14.2402 67.8188 14.6505 68.0654 14.9826C68.312 15.3147 68.6595 15.5487 69.0505 15.646C69.3044 15.7045 69.5675 15.7025 69.8206 15.6403C70.0736 15.5781 70.3101 15.4573 70.5126 15.2867C70.7151 15.116 70.8784 14.9 70.9904 14.6545C71.1025 14.409 71.1605 14.1403 71.1601 13.8683V7.75678L80.5398 15.5698C80.6133 15.6309 80.7019 15.669 80.7952 15.6798C80.8885 15.6906 80.9828 15.6735 81.0673 15.6307C81.1517 15.5878 81.223 15.5209 81.2727 15.4376C81.3224 15.3542 81.3487 15.2579 81.3485 15.1597V2.60341C81.3487 2.33139 81.2907 2.06278 81.1786 1.81737C81.0665 1.57197 80.9032 1.35603 80.7007 1.18548C80.4983 1.01492 80.2619 0.894109 80.0089 0.831939C79.7559 0.769769 79.4928 0.767829 79.239 0.826262ZM54.8172 4.07509C58.7845 4.07509 61.7488 6.26964 61.7488 8.23266C61.7488 10.1957 58.7845 12.3902 54.8172 12.3902C50.8499 12.3902 47.8856 10.1957 47.8856 8.23266C47.8856 6.26964 50.8499 4.07509 54.8172 4.07509ZM54.8172 0.436103C49.0747 0.436103 44.4196 3.92677 44.4196 8.23266C44.4196 12.5386 49.0747 16.0292 54.8172 16.0292C60.5597 16.0292 65.2146 12.5386 65.2146 8.23266C65.2146 3.92677 60.5595 0.436103 54.8172 0.436103Z" fill="#0069FF"/>
</g>
<defs>
<clipPath id="clip0">
<rect width="86.2068" height="18.8834" fill="white" transform="translate(0.0678101 0.4328)"/>
</clipPath>
</defs>
</svg>
