<svg width="169" height="51" viewBox="0 0 169 51" fill="none" xmlns="http://www.w3.org/2000/svg">
<path d="M27.067 12.8439V25.9882C27.067 26.5891 26.6171 27.0397 26.0173 27.0397H24.4428C24.3678 27.0397 24.2928 27.1149 24.2928 27.19V38.2312C24.6677 38.2312 25.0426 38.3063 25.4925 38.3063C32.5404 38.3063 38.2387 32.5979 38.2387 25.5375C38.2387 19.0029 33.3651 13.595 27.067 12.8439ZM26.7671 32.5228C25.8673 32.5228 25.1925 31.7717 25.1925 30.9455C25.1925 30.0442 25.9423 29.3682 26.7671 29.3682C27.6668 29.3682 28.3416 30.1193 28.3416 30.9455C28.4166 31.7717 27.6668 32.5228 26.7671 32.5228ZM30.516 32.5228C29.6162 32.5228 28.9414 31.7717 28.9414 30.9455C28.9414 30.0442 29.6912 29.3682 30.516 29.3682C31.4157 29.3682 32.0905 30.1193 32.0905 30.9455C32.0905 31.7717 31.4157 32.5228 30.516 32.5228ZM34.2649 32.5228C33.3651 32.5228 32.6903 31.7717 32.6903 30.9455C32.6903 30.0442 33.4401 29.3682 34.2649 29.3682C35.1646 29.3682 35.8394 30.1193 35.8394 30.9455C35.8394 31.7717 35.1646 32.5228 34.2649 32.5228Z" fill="#00985F"/>
<path d="M25.4925 12.7688C18.4445 12.7688 12.7462 18.4772 12.7462 25.5375C12.7462 31.6966 17.02 36.8041 22.7933 38.0059V26.514C22.7933 25.9882 23.2431 25.5375 23.768 25.4624H24.2928H25.3425C25.4175 25.4624 25.4925 25.3873 25.4925 25.3122V12.7688ZM23.0182 23.2842C22.1185 23.2842 21.4437 22.5331 21.4437 21.7069C21.4437 20.8056 22.1934 20.1296 23.0182 20.1296C23.9179 20.1296 24.5927 20.8807 24.5927 21.7069C24.5927 22.5331 23.9179 23.2842 23.0182 23.2842Z" fill="#00985F"/>
<path d="M153.105 19.7541V24.5611H146.657V19.7541H143.433V32.5228H146.657V27.3402H153.105V32.5228H156.254V19.7541H153.105Z" fill="#00985F"/>
<path d="M100.02 21.1812C99.4956 20.0545 98.4459 19.4536 97.3962 19.4536C96.3465 19.4536 95.2968 20.0545 94.772 21.1812L89.5985 32.5228H92.9725L94.0972 29.8189H100.695L101.82 32.5228H105.194L100.02 21.1812ZM95.1469 27.2651L97.0963 22.6083C97.1713 22.458 97.2462 22.458 97.3212 22.458C97.3962 22.458 97.5461 22.458 97.5461 22.6083L99.4956 27.2651H95.1469Z" fill="#00985F"/>
<path d="M62.0816 17.4256C60.5821 17.4256 59.6074 18.2518 58.9326 19.8292L54.8088 29.4433L50.685 19.8292C50.0102 18.2518 49.0355 17.4256 47.5359 17.4256C46.1114 17.4256 44.6868 18.4021 44.6868 20.5803V32.4477H47.8359V20.9558L52.0346 30.4948C52.5595 31.8468 53.5342 32.6731 54.8088 32.6731C56.1584 32.6731 57.0581 31.8468 57.583 30.4948L61.7817 20.9558V32.5228H64.9308V20.6554C64.9308 18.4772 63.5062 17.4256 62.0816 17.4256Z" fill="#00985F"/>
<path d="M70.5541 29.8189C70.4042 29.8189 70.2542 29.6686 70.2542 29.5184V27.2651H78.2019V24.6362H70.2542V22.6834C70.2542 22.5332 70.4042 22.3829 70.5541 22.3829H78.4268V19.679H68.9796C67.8549 19.679 67.1052 20.5803 67.1052 21.5567V30.4949C67.1052 31.4713 67.9299 32.3726 68.9796 32.3726H78.4268V29.6686H70.5541V29.8189Z" fill="#00985F"/>
<path d="M83.7502 32.5228V22.7585C83.7502 22.6083 83.9002 22.458 84.0501 22.458H91.9228V19.7541H82.4756C81.3509 19.7541 80.6012 20.6554 80.6012 21.6318V32.4477H83.7502V32.5228Z" fill="#00985F"/>
<path d="M141.333 26.1384C141.333 21.7069 139.384 19.6038 134.585 19.6038H133.461C128.662 19.6038 126.713 21.7069 126.713 26.1384C126.713 30.4948 128.662 32.673 133.461 32.673H134.51C139.384 32.5979 141.333 30.4948 141.333 26.1384ZM134.51 29.9691H133.461C130.836 29.9691 129.787 28.7673 129.787 26.1384C129.787 23.5847 130.686 22.3078 133.461 22.3078H134.51C137.209 22.3078 138.184 23.5847 138.184 26.1384C138.184 28.7673 137.209 29.9691 134.51 29.9691Z" fill="#00985F"/>
<path d="M117.865 17.7261H111.567C106.843 17.7261 104.969 20.1296 104.969 24.2607C104.969 24.9367 105.044 25.5376 105.119 26.0633C105.644 28.9926 107.368 30.7953 111.792 30.7953H113.217V32.4477H116.366V30.7953H117.715C122.139 30.7953 123.863 28.9926 124.388 26.0633C124.463 25.5376 124.538 24.9367 124.538 24.2607C124.463 20.1296 122.514 17.7261 117.865 17.7261ZM113.067 28.1664H111.642C109.468 28.1664 108.718 27.3402 108.268 26.0633C108.118 25.6127 108.118 24.9367 108.118 24.2607C108.118 21.5567 109.393 20.4301 111.192 20.4301H113.142V28.1664H113.067ZM121.164 26.1384C120.714 27.4153 119.89 28.2415 117.79 28.2415H116.366V20.4301H118.315C120.114 20.4301 121.389 21.5567 121.389 24.2607C121.314 25.0118 121.314 25.6127 121.164 26.1384Z" fill="#00985F"/>
</svg>
