<svg width="82" height="27" viewBox="0 0 82 27" fill="none" xmlns="http://www.w3.org/2000/svg">
<g clip-path="url(#clip0)">
<path fill-rule="evenodd" clip-rule="evenodd" d="M27.7716 19.9945C27.7716 20.2556 27.6952 20.5108 27.5522 20.7279C27.4092 20.9449 27.206 21.1141 26.9682 21.214C26.7304 21.314 26.4687 21.3401 26.2162 21.2892C25.9638 21.2382 25.7319 21.1125 25.5499 20.9279C25.3679 20.7433 25.2439 20.5081 25.1937 20.252C25.1435 19.9959 25.1693 19.7305 25.2678 19.4893C25.3663 19.2481 25.5331 19.042 25.7471 18.8969C25.9611 18.7519 26.2127 18.6744 26.4701 18.6744C26.641 18.6744 26.8103 18.7086 26.9682 18.7749C27.1261 18.8413 27.2695 18.9385 27.3904 19.0611C27.5112 19.1836 27.6071 19.3292 27.6725 19.4893C27.7379 19.6495 27.7716 19.8211 27.7716 19.9945Z" fill="#ED1C24"/>
<path fill-rule="evenodd" clip-rule="evenodd" d="M43.9057 3.97795C41.9877 2.89342 33.4513 5.3455 30.7138 14.7045C30.3899 14.7956 28.8406 15.2033 28.8406 15.2033L28.1733 17.0537L30.5655 16.3056C30.5655 16.3056 30.3021 20.7941 34.3293 20.9267C37.4922 20.808 39.1468 16.2462 38.1341 13.0382C37.939 13.1411 35.4142 14.374 35.4142 14.374C35.4142 14.374 35.9995 17.8968 34.5927 18.3322C34.1381 18.3915 33.6035 16.9825 34.0932 14.8708C40.8131 11.3282 45.0725 4.64292 43.9057 3.98587V3.97795ZM41.2267 6.11733C42.5145 5.99859 36.3215 12.6839 34.7391 13.0105C34.222 12.7136 38.6629 6.75657 41.2267 6.11733Z" fill="#ED1C24"/>
<path fill-rule="evenodd" clip-rule="evenodd" d="M40.2163 12.5216V13.8437C40.2163 13.8437 41.9294 12.7136 42.0621 12.9234C42.105 13.5171 39.9392 18.54 39.8943 19.296C39.8495 19.7571 40.2748 21.4968 42.2806 20.5903C43.2562 20.1589 45.8942 17.97 45.8942 17.97C45.8942 17.97 45.4708 19.0862 45.6503 19.9808C45.8298 20.8753 46.9205 21.1069 47.9059 20.7388C48.8912 20.3707 50.0151 19.6087 50.499 19.015C50.4249 18.8171 50.1458 17.9305 50.1458 17.9305C50.1458 17.9305 49.2639 18.7735 49.0473 18.6647C48.8307 18.5559 51.5526 10.4575 51.5526 10.4575C51.5526 10.4575 48.7605 10.3466 48.4815 10.3466C48.021 12.4742 45.4142 17.8671 43.6133 18.1086C42.9967 18.0631 45.7947 11.734 45.9001 11.0195C46.0952 10.0834 45.4142 9.65396 44.5947 9.84593C43.7304 10.1448 40.2163 12.5216 40.2163 12.5216Z" fill="#ED1C24"/>
<path fill-rule="evenodd" clip-rule="evenodd" d="M59.4037 10.2574C59.4037 10.2574 59.0662 11.1045 59.0018 11.2469C58.6486 10.6295 57.4272 9.42423 54.9043 11.0194C52.2722 12.7471 51.1463 15.6959 51.5014 18.8248C51.8917 21.4154 54.6487 21.7242 56.5121 19.5234C56.3169 20.0954 54.3424 26.2523 54.3424 26.2523L57.4116 26.2681L62.4241 10.3168L59.4037 10.2535V10.2574ZM56.0418 17.9619C55.6067 18.2054 54.9336 18.6131 54.838 17.0654C54.7892 15.2407 56.2369 13.2023 56.514 12.8817C57.236 12.0505 58.1374 12.0366 58.114 13.3507C58.0262 14.8667 57.0506 17.2613 56.0418 17.9619Z" fill="#ED1C24"/>
<path fill-rule="evenodd" clip-rule="evenodd" d="M10.1406 20.7201C8.60695 19.0775 9.79912 16.0495 10.0567 13.3679C9.71522 13.7142 6.30456 21.7592 3.22755 21.4108C0.4959 20.548 0.839307 17.4329 1.69197 15.0976H6.12505C4.75923 18.9034 6.63626 17.3458 7.91623 14.9254C10.4742 9.64921 10.6479 9.21579 13.4595 1.25793H18.3199C16.8721 5.75637 15.5063 10.1638 14.9093 14.8383C14.9093 15.0105 14.9951 15.1847 15.1649 15.0976C16.1873 14.9254 21.8164 2.12477 22.3276 1.25793H27.0105C27.0105 1.68937 21.8086 16.1366 22.6613 17.52C23.0886 18.2978 23.6857 16.8273 24.1969 16.2217L24.9656 17.0015C23.4301 18.7312 21.6486 21.8443 19.0809 21.3257C18.7285 21.2411 18.4051 21.062 18.1443 20.8072C15.4985 18.4719 20.275 10.0292 19.7638 9.47505C19.6038 9.49286 19.4458 9.92232 19.1648 10.5141C17.7151 13.542 14.3902 21.4979 11.6605 21.4979C11.2508 21.4979 10.3962 21.0665 10.1406 20.7201Z" fill="#ED1C24"/>
<path fill-rule="evenodd" clip-rule="evenodd" d="M65.3978 18.3499C71.0835 15.318 72.4474 11.4746 70.6972 10.398C68.1099 8.93149 61.0291 11.5557 61.8311 18.7398C61.4759 18.9515 60.7365 19.3592 60.7365 19.3592L61.2516 20.7921C61.2516 20.7921 62.2954 20.1588 62.5666 19.9688C66.1841 22.9374 70.1548 18.0649 70.1548 18.0649L69.4602 16.9804C69.4602 16.9804 66.4553 19.9114 65.3978 18.3499ZM66.151 13.9504C66.9705 12.4839 68.2875 11.344 68.9314 11.7992C69.5753 12.2544 68.2719 14.5699 65.2085 17.0279C65.0856 16.8122 65.3315 15.4169 66.151 13.9504Z" fill="#ED1C24"/>
<path fill-rule="evenodd" clip-rule="evenodd" d="M74.7149 10.5128L78.0066 10.4139C78.0066 10.4139 73.3823 14.1167 74.0554 17.6157C74.5881 19.7432 76.5432 18.7062 77.6222 16.2957C77.829 15.8227 79.1304 12.6146 78.3109 12.6146C77.4914 12.6146 76.6368 14.2592 76.6368 14.2592L75.7412 13.3468C75.7412 13.3468 77.5558 10.7226 79.6221 10.022C79.8699 9.94284 81.3626 9.62619 81.3782 11.8032C81.4426 12.8125 80.3675 18.3539 76.6251 20.3132C73.191 22.1042 71.6847 19.9609 71.4135 19.3237C69.5384 14.5739 74.7149 10.5128 74.7149 10.5128Z" fill="#ED1C24"/>
</g>
<defs>
<clipPath id="clip0">
<rect width="80.6133" height="26.5852" fill="white" transform="translate(0.868469 0.327759)"/>
</clipPath>
</defs>
</svg>
