<svg width="99" height="33" viewBox="0 0 99 33" fill="none" xmlns="http://www.w3.org/2000/svg">
<g clip-path="url(#clip0)">
<path fill-rule="evenodd" clip-rule="evenodd" d="M70.1364 7.08297H70.6402V5.15456C70.6511 4.94093 70.7421 4.7396 70.8945 4.59173C71.0469 4.44387 71.2493 4.36065 71.4602 4.35909C71.9117 4.35909 72.0353 4.64835 72.0353 5.05091V7.09503H72.5415V5.16661C72.5354 5.05908 72.5521 4.95147 72.5904 4.85101C72.6287 4.75056 72.6878 4.6596 72.7637 4.58424C72.8395 4.50888 72.9304 4.45087 73.0303 4.41411C73.1301 4.37736 73.2365 4.3627 73.3424 4.37114C73.8367 4.37114 73.9365 4.67727 73.9365 5.06296V7.10708H74.4427V4.8219C74.4427 4.1783 74.0316 3.91796 73.4208 3.91796C73.2294 3.91735 73.0409 3.96561 72.8727 4.05828C72.7045 4.15096 72.562 4.28507 72.4583 4.44828C72.3948 4.27801 72.2778 4.13375 72.1252 4.03787C71.9727 3.94198 71.7932 3.89983 71.6146 3.91796C71.4183 3.91145 71.2236 3.95694 71.0498 4.04993C70.8761 4.14291 70.7292 4.2802 70.6236 4.44828H70.6117V3.99028H70.1364V7.10708V7.08297Z" fill="#ED1C24"/>
<path fill-rule="evenodd" clip-rule="evenodd" d="M77.8795 3.96854H77.3519L76.5153 6.56466H76.5034L75.6408 3.96854H75.0775L76.2183 7.08292H76.7577L77.8795 3.96854Z" fill="#ED1C24"/>
<path fill-rule="evenodd" clip-rule="evenodd" d="M78.5472 7.08295H79.0511V3.96616H78.5472V7.08295ZM79.0511 2.78018H78.5472V3.40692H79.0511V2.78018Z" fill="#ED1C24"/>
<path fill-rule="evenodd" clip-rule="evenodd" d="M82.7512 2.78018H82.2473V4.38318H82.2354C82.1214 4.22656 81.9711 4.1007 81.7979 4.01665C81.6248 3.9326 81.4339 3.89292 81.2421 3.90108C80.2914 3.90108 79.8399 4.64351 79.8399 5.52335C79.8399 6.40319 80.3152 7.16251 81.2539 7.16251C81.677 7.16251 82.0691 7.01064 82.2354 6.66835H82.2473V7.09019H82.7512V2.78018ZM80.3746 5.55228C80.3746 4.94241 80.6123 4.34702 81.2967 4.34702C81.9812 4.34702 82.264 4.91349 82.264 5.52818C82.264 6.14286 82.0026 6.7021 81.3252 6.7021C80.6479 6.7021 80.3746 6.13562 80.3746 5.55228Z" fill="#ED1C24"/>
<path fill-rule="evenodd" clip-rule="evenodd" d="M85.8214 6.09441C85.7873 6.27811 85.6867 6.44226 85.5394 6.55463C85.3921 6.66701 85.2087 6.71952 85.0253 6.70186C84.8932 6.7099 84.761 6.6884 84.638 6.63888C84.515 6.58936 84.4042 6.51303 84.3136 6.4153C84.2229 6.31756 84.1545 6.20082 84.1132 6.0733C84.0719 5.94579 84.0587 5.81063 84.0746 5.67739H86.3728C86.4037 4.92531 86.0709 3.89362 84.9825 3.89362C84.1459 3.89362 83.5399 4.58061 83.5399 5.51589C83.5399 6.45117 84.0319 7.15504 85.0134 7.15504C85.3235 7.17807 85.6308 7.08168 85.8739 6.88509C86.1171 6.68851 86.2782 6.40617 86.3252 6.09441H85.8214ZM84.0699 5.22663C84.0699 4.98945 84.1628 4.76197 84.3281 4.59426C84.4935 4.42655 84.7177 4.33232 84.9516 4.33232C85.1854 4.33232 85.4097 4.42655 85.5751 4.59426C85.7404 4.76197 85.8333 4.98945 85.8333 5.22663H84.0699Z" fill="#ED1C24"/>
<path fill-rule="evenodd" clip-rule="evenodd" d="M87.1335 5.52794C87.1335 6.43671 87.6515 7.15504 88.6235 7.15504C89.5956 7.15504 90.116 6.43188 90.116 5.52794C90.116 4.624 89.5979 3.89362 88.6235 3.89362C87.6492 3.89362 87.1335 4.61677 87.1335 5.52794ZM87.6682 5.52794C87.6682 4.76863 88.096 4.34679 88.6188 4.34679C89.1416 4.34679 89.5694 4.76863 89.5694 5.52794C89.5694 6.28725 89.1416 6.70186 88.6188 6.70186C88.096 6.70186 87.6801 6.28002 87.6801 5.52794H87.6682Z" fill="#ED1C24"/>
<path d="M91.6546 6.41284H90.9931V7.08138H91.6546V6.41284Z" fill="#ED1C24"/>
<path fill-rule="evenodd" clip-rule="evenodd" d="M92.6876 7.08284H93.1914V5.69679C93.1914 4.90614 93.4885 4.4361 94.3036 4.4361V3.89373C94.0638 3.8749 93.8243 3.9351 93.6209 4.0654C93.4175 4.1957 93.261 4.38912 93.1748 4.61689H93.1629V3.95881H92.6876V7.08284Z" fill="#ED1C24"/>
<path fill-rule="evenodd" clip-rule="evenodd" d="M97.5739 3.96603H97.07V5.72089C97.07 6.28254 96.773 6.69715 96.1598 6.69715C96.0767 6.70398 95.9932 6.6925 95.9149 6.66349C95.8366 6.63448 95.7655 6.58863 95.7063 6.52909C95.6472 6.46955 95.6014 6.39772 95.5722 6.31855C95.543 6.23937 95.531 6.15472 95.5372 6.07042V3.96121H95.0309V6.01015C95.0309 6.68028 95.2805 7.15032 96.0885 7.15032C96.2907 7.16143 96.4918 7.11409 96.6685 7.01381C96.8452 6.91353 96.9902 6.76443 97.0867 6.58385H97.0985V7.06595H97.5739V3.96603Z" fill="#ED1C24"/>
<path fill-rule="evenodd" clip-rule="evenodd" d="M34.2698 2.70573H34.5623L35.014 3.42915H35.2874L34.8119 2.68886C34.8705 2.69177 34.929 2.682 34.9836 2.6602C35.0382 2.6384 35.0876 2.60506 35.1285 2.56242C35.1695 2.51977 35.201 2.46878 35.221 2.41283C35.241 2.35689 35.249 2.29726 35.2446 2.23792C35.2446 1.90756 35.0472 1.75565 34.6574 1.75565H34.0107V3.44362H34.2651V2.7202L34.2698 2.70573ZM34.2698 1.96544H34.6217C34.7976 1.96544 34.9949 2.00402 34.9949 2.21864C34.9949 2.47424 34.7976 2.49353 34.5837 2.49353H34.2698V1.96544Z" fill="#ED1C24"/>
<path fill-rule="evenodd" clip-rule="evenodd" d="M34.5835 4.0745C34.9718 4.07324 35.344 3.91655 35.619 3.63849C35.894 3.36043 36.0497 2.98349 36.0522 2.58962C36.0507 2.39646 36.0113 2.20553 35.9364 2.02792C35.8616 1.85031 35.7526 1.68955 35.616 1.555C35.4794 1.42044 35.3177 1.31475 35.1405 1.24408C34.9632 1.17341 34.7739 1.13916 34.5835 1.14332C34.3906 1.13689 34.1983 1.1693 34.0178 1.23866C33.8373 1.30802 33.6721 1.41297 33.5318 1.54744C33.3915 1.68191 33.2788 1.84325 33.2003 2.02212C33.1218 2.201 33.079 2.39388 33.0744 2.58962C33.0825 2.98881 33.2455 3.36863 33.5281 3.64664C33.8106 3.92464 34.1899 4.0784 34.5835 4.0745ZM34.5835 1.37954C34.7393 1.37822 34.8937 1.4086 35.0376 1.46888C35.1816 1.52917 35.3122 1.61813 35.4216 1.73051C35.5311 1.84289 35.6172 1.97639 35.6749 2.12313C35.7326 2.26987 35.7607 2.42686 35.7575 2.5848C35.7624 2.74319 35.7354 2.90093 35.6783 3.04843C35.6213 3.19593 35.5352 3.33012 35.4254 3.44285C35.3156 3.55557 35.1843 3.64448 35.0396 3.70416C34.8949 3.76385 34.7397 3.79307 34.5835 3.79006C34.4267 3.793 34.2708 3.76384 34.1254 3.70431C33.9799 3.64478 33.8477 3.55611 33.7368 3.4436C33.6259 3.33109 33.5385 3.19706 33.4798 3.0495C33.4211 2.90194 33.3923 2.74389 33.3952 2.5848C33.3959 2.26556 33.5213 1.95962 33.7441 1.73412C33.9669 1.50861 34.2688 1.38195 34.5835 1.38195V1.37954Z" fill="#ED1C24"/>
<path fill-rule="evenodd" clip-rule="evenodd" d="M32.768 23.954C32.768 24.272 32.675 24.5829 32.5008 24.8473C32.3266 25.1117 32.0791 25.3178 31.7894 25.4395C31.4998 25.5612 31.1811 25.593 30.8736 25.531C30.5661 25.4689 30.2836 25.3158 30.0619 25.0909C29.8403 24.8661 29.6893 24.5796 29.6281 24.2677C29.567 23.9558 29.5983 23.6325 29.7183 23.3387C29.8383 23.045 30.0415 22.7939 30.3021 22.6172C30.5628 22.4405 30.8693 22.3462 31.1828 22.3462C31.391 22.3462 31.5971 22.3878 31.7894 22.4686C31.9817 22.5494 32.1565 22.6678 32.3037 22.8171C32.4509 22.9664 32.5676 23.1437 32.6473 23.3387C32.727 23.5338 32.768 23.7429 32.768 23.954Z" fill="#ED1C24"/>
<path fill-rule="evenodd" clip-rule="evenodd" d="M52.4194 4.44583C50.0833 3.12487 39.6859 6.1115 36.3516 17.5108C35.9571 17.6217 34.0702 18.1183 34.0702 18.1183L33.2574 20.3721L36.171 19.4609C36.171 19.4609 35.8502 24.928 40.7554 25.0895C44.6077 24.9449 46.623 19.3886 45.3896 15.4812C45.152 15.6065 42.0767 17.1083 42.0767 17.1083C42.0767 17.1083 42.7897 21.399 41.0762 21.9293C40.5225 22.0016 39.8713 20.2853 40.4678 17.7133C48.6526 13.3985 53.8406 5.25577 52.4194 4.45547V4.44583ZM49.1564 7.0516C50.7249 6.90697 43.1818 15.0497 41.2544 15.4474C40.6246 15.0858 46.0336 7.83019 49.1564 7.0516Z" fill="#ED1C24"/>
<path fill-rule="evenodd" clip-rule="evenodd" d="M47.9257 14.8521V16.4623C47.9257 16.4623 50.0123 15.0859 50.1739 15.3414C50.2262 16.0646 47.5883 22.1825 47.5336 23.1033C47.4789 23.6649 47.997 25.7838 50.4401 24.6798C51.6284 24.1543 54.8415 21.4882 54.8415 21.4882C54.8415 21.4882 54.3257 22.8478 54.5444 23.9373C54.763 25.0269 56.0915 25.3089 57.2917 24.8605C58.4918 24.4122 59.8607 23.4841 60.4501 22.761C60.3598 22.5199 60.0199 21.44 60.0199 21.44C60.0199 21.44 58.9457 22.4669 58.682 22.3343C58.4182 22.2017 61.7334 12.3379 61.7334 12.3379C61.7334 12.3379 58.3326 12.2029 57.9927 12.2029C57.4319 14.7942 54.2568 21.3629 52.0633 21.657C51.3123 21.6015 54.7203 13.8927 54.8486 13.0225C55.0862 11.8823 54.2568 11.3592 53.2587 11.5931C52.2059 11.957 47.9257 14.8521 47.9257 14.8521Z" fill="#ED1C24"/>
<path fill-rule="evenodd" clip-rule="evenodd" d="M71.296 12.0943C71.296 12.0943 70.8848 13.126 70.8064 13.2996C70.3762 12.5475 68.8885 11.0795 65.8157 13.0224C62.6097 15.1268 61.2385 18.7184 61.671 22.5294C62.1463 25.6848 65.5043 26.0608 67.7739 23.3804C67.5363 24.077 65.1312 31.5761 65.1312 31.5761L68.8695 31.5954L74.9748 12.1666L71.296 12.0895V12.0943ZM67.2012 21.4785C66.6712 21.775 65.8513 22.2715 65.7349 20.3865C65.6755 18.164 67.4388 15.6812 67.7763 15.2907C68.6556 14.2783 69.7536 14.2614 69.7251 15.862C69.6181 17.7084 68.4299 20.6251 67.2012 21.4785Z" fill="#ED1C24"/>
<path fill-rule="evenodd" clip-rule="evenodd" d="M11.2934 24.8379C9.42547 22.8372 10.8775 19.1491 11.1912 15.8828C10.7753 16.3047 6.62115 26.1034 2.87335 25.6792C-0.453806 24.6282 -0.0355357 20.834 1.00301 17.9896H6.40251C4.73893 22.6251 7.02516 20.728 8.58417 17.7799C11.6998 11.3535 11.9113 10.8256 15.3359 1.1329H21.2559C19.4925 6.61201 17.8289 11.9802 17.1017 17.6739C17.1017 17.8836 17.2063 18.0957 17.413 17.9896C18.6583 17.7799 25.5146 2.18871 26.1373 1.1329H31.841C31.841 1.6584 25.5051 19.2552 26.5437 20.9401C27.0641 21.8874 27.7914 20.0964 28.414 19.3588L29.3504 20.3085C27.48 22.4153 25.3103 26.2071 22.1827 25.5755C21.7536 25.4724 21.3596 25.2543 21.042 24.944C17.8194 22.0996 23.6372 11.8163 23.0145 11.1414C22.8196 11.1631 22.6271 11.6861 22.2849 12.4069C20.5192 16.095 16.4695 25.7852 13.1447 25.7852C12.6457 25.7852 11.6048 25.2598 11.2934 24.8379Z" fill="#ED1C24"/>
<path fill-rule="evenodd" clip-rule="evenodd" d="M78.5969 21.9509C85.5221 18.258 87.1833 13.5768 85.0515 12.2655C81.9002 10.4793 73.2758 13.6756 74.2525 22.4258C73.82 22.6837 72.9193 23.1803 72.9193 23.1803L73.5467 24.9255C73.5467 24.9255 74.8182 24.1542 75.1485 23.9227C79.5546 27.5385 84.3908 21.6038 84.3908 21.6038L83.5448 20.2829C83.5448 20.2829 79.8849 23.8528 78.5969 21.9509ZM79.5142 16.5924C80.5123 14.8062 82.1165 13.4177 82.9008 13.9721C83.685 14.5266 82.0975 17.3469 78.3663 20.3407C78.2166 20.078 78.5161 18.3786 79.5142 16.5924Z" fill="#ED1C24"/>
<path fill-rule="evenodd" clip-rule="evenodd" d="M89.945 12.4053L93.9543 12.2848C93.9543 12.2848 88.3219 16.7949 89.1418 21.0567C89.7906 23.648 92.1719 22.3849 93.4861 19.4489C93.738 18.8727 95.3231 14.9653 94.325 14.9653C93.3269 14.9653 92.2859 16.9684 92.2859 16.9684L91.1951 15.8572C91.1951 15.8572 93.4053 12.6608 95.922 11.8075C96.2238 11.7111 98.0419 11.3254 98.0609 13.977C98.1393 15.2063 96.8299 21.9558 92.2717 24.3422C88.089 26.5237 86.2543 23.9131 85.9239 23.1369C83.6401 17.3517 89.945 12.4053 89.945 12.4053Z" fill="#ED1C24"/>
</g>
<defs>
<clipPath id="clip0">
<rect width="98.1872" height="32.3809" fill="white"/>
</clipPath>
</defs>
</svg>
